<svg id="SvgjsSvg1001" width="288" height="288" xmlns="http://www.w3.org/2000/svg" version="1.1" xmlns:xlink="http://www.w3.org/1999/xlink" xmlns:svgjs="http://svgjs.com/svgjs"><defs id="SvgjsDefs1002"></defs><g id="SvgjsG1008"><svg xmlns="http://www.w3.org/2000/svg" fill="none" viewBox="0 0 1031 1006" width="288" height="288"><path fill="#a0a0a0" fill-opacity=".4" fill-rule="evenodd" d="M154.588 850.5L154.926 850.854C245.715 945.784 373.302 1004.85 514.607 1004.85C655.913 1004.85 783.499 945.784 874.289 850.854L874.627 850.5L896.211 850.5C979.246 758.632 1029.85 636.59 1029.85 502.657C1029.85 369.934 980.157 248.888 898.455 157.311L876.348 157.311L876.009 156.954C785.115 60.9668 656.808 1.14734 514.607 1.14733C372.407 1.14732 244.1 60.9667 153.206 156.954L152.867 157.311L132.545 157.311C50.843 248.888 1.14501 369.934 1.145 502.657C1.14499 636.59 51.7536 758.632 134.788 850.5L154.588 850.5ZM134.281 851.648C50.86 759.533 -6.44828e-05 637.068 -5.27321e-05 502.657C-4.10874e-05 369.457 49.9473 247.989 132.033 156.164L152.375 156.164C243.476 59.9587 372.079 -1.97131e-06 514.607 1.04889e-05C657.135 2.29491e-05 785.739 59.9587 876.84 156.164L898.967 156.164C981.053 247.989 1031 369.457 1031 502.657C1031 637.068 980.14 759.533 896.719 851.648L875.116 851.648C784.12 946.793 656.238 1006 514.607 1006C372.976 1006 245.095 946.793 154.099 851.648L134.281 851.648Z" clip-rule="evenodd" class="color000 svgShape"></path><path fill="#a0a0a0" fill-rule="evenodd" d="M399.047 618.659L399.718 619.364C429.265 650.457 470.487 669.74 516.081 669.74C561.675 669.74 602.896 650.457 632.444 619.364L633.114 618.659L640.691 618.659C667.445 588.109 683.733 547.675 683.733 503.316C683.733 459.363 667.742 419.264 641.424 388.816L635.392 388.816L634.717 388.077C605.03 355.556 562.856 335.26 516.081 335.26C469.306 335.26 427.131 355.555 397.444 388.077L396.769 388.816L390.576 388.816C364.258 419.264 348.267 459.363 348.267 503.316C348.267 547.675 364.555 588.109 391.309 618.659L399.047 618.659ZM390.283 620.919C362.773 589.878 346 548.61 346 503.316C346 458.431 362.471 417.499 389.541 386.556L395.768 386.556C425.858 353.592 468.629 333 516.081 333C563.532 333 606.303 353.592 636.394 386.556L642.459 386.556C669.529 417.499 686 458.431 686 503.316C686 548.61 669.227 589.878 641.717 620.919L634.089 620.919C604.139 652.435 562.333 672 516.081 672C469.828 672 428.022 652.435 398.072 620.919L390.283 620.919Z" clip-rule="evenodd" class="color000 svgShape"></path><path fill="#a0a0a0" fill-opacity=".4" fill-rule="evenodd" d="M416.944 599.375L417.276 599.733C441.975 626.304 476.742 642.845 515.258 642.845C553.775 642.845 588.542 626.304 613.241 599.733L613.573 599.375L619.772 599.375C642.211 573.802 655.876 539.898 655.876 502.701C655.876 465.842 642.459 432.217 620.383 406.727L613.668 406.727L613.336 406.369C588.631 379.738 553.825 363.154 515.258 363.154C476.692 363.154 441.886 379.738 417.181 406.369L416.849 406.727L411.617 406.727C389.541 432.217 376.124 465.842 376.124 502.701C376.124 539.898 389.789 573.802 412.228 599.375L416.944 599.375ZM411.729 600.529C388.911 574.708 375 540.379 375 502.701C375 465.362 388.662 431.313 411.114 405.573L416.368 405.573C441.275 378.723 476.372 362 515.258 362C554.145 362 589.242 378.723 614.149 405.573L620.886 405.573C643.338 431.313 657 465.362 657 502.701C657 540.379 643.089 574.708 620.271 600.529L614.053 600.529C589.152 627.319 554.095 644 515.258 643.999C476.422 643.999 441.365 627.319 416.463 600.529L411.729 600.529Z" clip-rule="evenodd" class="color000 svgShape"></path></svg></g></svg>