<svg width="1483" height="57" viewBox="0 0 1483 57" fill="none" xmlns="http://www.w3.org/2000/svg">
<path d="M4 51.5C1.79086 51.5 -7.8281e-08 49.7091 -1.74846e-07 47.5L-1.83588e-06 9.5C-1.93244e-06 7.29086 1.79086 5.5 4 5.5V5.5L4 51.5V51.5Z" fill="#E23D3B" fill-opacity="0.8"/>
<path d="M144 56.0999V0.899902H164.96C180 0.899902 187.52 8.4199 187.52 23.4599V33.5399C187.52 48.5799 180 56.0999 164.96 56.0999H144ZM155.52 45.6999H165.6C172.533 45.6999 176 42.2332 176 35.2999V21.6999C176 14.7666 172.533 11.2999 165.6 11.2999H155.52V45.6999Z" fill="black"/>
<path d="M227.52 56.0999V0.899902H265.28V11.2999H239.04V22.4999H262.88V32.8999H239.04V45.6999H265.28V56.0999H227.52Z" fill="black"/>
<path d="M305.28 51.9399V45.6999H317.68H330.08C331.68 45.6999 332.48 44.8999 332.48 43.2999V37.5399C332.48 35.9932 331.813 35.1132 330.48 34.8999L314.88 31.6999C308.48 30.4199 305.28 26.1266 305.28 18.8199V14.3399C305.28 5.3799 309.76 0.899902 318.72 0.899902H337.04L342.4 5.05991V11.2999H319.2C317.6 11.2999 316.8 12.0999 316.8 13.6999V18.8999C316.8 20.3932 317.467 21.2732 318.8 21.5399L334.4 24.6599C340.8 25.9399 344 30.2332 344 37.5399V42.6599C344 51.6199 339.52 56.0999 330.56 56.0999H310.64L305.28 51.9399Z" fill="black"/>
<path d="M387 56.0999C385.343 56.0999 384 54.7568 384 53.0999V3.89991C384 2.24305 385.343 0.899902 387 0.899902H392.52C394.177 0.899902 395.52 2.24305 395.52 3.8999V53.0999C395.52 54.7568 394.177 56.0999 392.52 56.0999H387Z" fill="black"/>
<path d="M435.52 42.6599V14.3399C435.52 5.3799 440 0.899902 448.96 0.899902H472.08L477.44 5.05991V11.2999H449.44C447.84 11.2999 447.04 12.0999 447.04 13.6999V43.2999C447.04 44.8999 447.84 45.6999 449.44 45.6999H467.52V32.8999H456.96V22.4999H479.04V56.0999H448.96C440 56.0999 435.52 51.6199 435.52 42.6599Z" fill="black"/>
<path d="M519.04 56.0999V0.899902H531.52L553.44 37.1399V0.899902H564.96V56.0999H552.48L530.56 19.8599V56.0999H519.04Z" fill="black"/>
<rect x="582.911" y="11.8999" width="4" height="4" fill="black"/>
<path d="M720.621 17.1214C719.45 15.9498 719.45 14.0503 720.621 12.8787L725.43 8.07027C726.601 6.89869 728.501 6.89869 729.672 8.07026L738.575 16.9729C739.747 18.1445 741.646 18.1445 742.818 16.9729L752.075 7.71555C753.247 6.54397 755.146 6.54398 756.318 7.71555L761.836 13.2335C763.007 14.405 763.007 16.3045 761.836 17.4761L752.578 26.7334C751.407 27.905 751.407 29.8045 752.578 30.9761L761.481 39.8787C762.652 41.0502 762.652 42.9497 761.481 44.1213L756.672 48.9298C755.501 50.1014 753.601 50.1014 752.43 48.9298L743.527 40.0272C742.355 38.8556 740.456 38.8556 739.284 40.0272L730.027 49.2845C728.856 50.4561 726.956 50.4561 725.784 49.2845L720.267 43.7666C719.095 42.595 719.095 40.6955 720.267 39.524L729.524 30.2666C730.695 29.0951 730.695 27.1956 729.524 26.024L720.621 17.1214Z" fill="white"/>
<path d="M917 11.2999V0.899902H962.12V11.2999H945.32V56.0999H933.8V11.2999H917Z" fill="black"/>
<path d="M926.78 51.6556H930.78V55.6556H926.78V51.6556Z" fill="black"/>
<path d="M933.78 51.6556H937.78V55.6556H933.78V51.6556Z" fill="white"/>
<path d="M1004.12 31.3216V25.6781C1004.12 23.8926 1005.07 22.9999 1006.96 22.9999H1009.28C1011.17 22.9999 1012.12 23.8926 1012.12 25.6781V31.3216C1012.12 33.1071 1011.17 33.9999 1009.28 33.9999H1006.96C1005.07 33.9999 1004.12 33.1071 1004.12 31.3216ZM1006.55 31.4492C1006.55 31.768 1006.72 31.9274 1007.06 31.9274H1009.18C1009.52 31.9274 1009.69 31.768 1009.69 31.4492V25.5506C1009.69 25.2318 1009.52 25.0723 1009.18 25.0723H1007.06C1006.72 25.0723 1006.55 25.2318 1006.55 25.5506V31.4492Z" fill="black"/>
<path d="M994.12 33.9999V30.4129C994.12 28.9569 994.795 28.1013 996.145 27.8463L999.268 27.2564C999.549 27.2033 999.69 27.0279 999.69 26.7303V25.5506C999.69 25.2318 999.521 25.0723 999.183 25.0723H994.458V23.8289L995.588 22.9999H999.285C1001.17 22.9999 1002.12 23.8926 1002.12 25.6781V26.7144C1002.12 28.1704 1001.44 29.026 1000.09 29.281L996.972 29.8709C996.691 29.924 996.55 30.0994 996.55 30.397V31.9274H1002.12V33.9999H994.12Z" fill="black"/>
<path d="M1044.12 56.0999V0.899902H1081.88V11.2999H1055.64V22.4999H1079.48V32.8999H1055.64V45.6999H1081.88V56.0999H1044.12Z" fill="black"/>
<path d="M1113.88 30.7879V26.2119H1118.65V30.7879H1113.88Z" fill="black"/>
<path fill-rule="evenodd" clip-rule="evenodd" d="M1150.65 14.3399V42.6599C1150.65 51.6199 1155.13 56.0999 1164.09 56.0999H1185.45L1190.81 51.9399V45.6999H1164.57C1162.97 45.6999 1162.17 44.8999 1162.17 43.2999V13.6999C1162.17 12.0999 1162.97 11.2999 1164.57 11.2999H1172.18V7.86377H1176.18V11.2999H1190.81V5.05991L1185.45 0.899902H1164.09C1155.13 0.899902 1150.65 5.3799 1150.65 14.3399Z" fill="black"/>
<path d="M1172.72 25.2556H1176.72L1178.72 27.7556V30.7556H1174.22L1172.72 29.2556V25.2556Z" fill="black"/>
<path d="M1232.02 32.3738V30.4926L1235.39 22.9999H1237.33L1237.6 23.4781L1234.54 30.3013H1237.29V27.1448H1239.58V33.9999H1237.29V32.3738H1232.02Z" fill="black"/>
<path d="M1222.81 33.9999V30.4129C1222.81 28.9569 1223.45 28.1013 1224.72 27.8463L1227.67 27.2564C1227.94 27.2033 1228.07 27.0279 1228.07 26.7303V25.5506C1228.07 25.2318 1227.91 25.0723 1227.59 25.0723H1223.13V23.8289L1224.19 22.9999H1227.69C1229.47 22.9999 1230.36 23.8926 1230.36 25.6781V26.7144C1230.36 28.1704 1229.73 29.026 1228.45 29.281L1225.5 29.8709C1225.24 29.924 1225.1 30.0994 1225.1 30.397V31.9274H1230.36V33.9999H1222.81Z" fill="black"/>
<path d="M1271.58 56.0999V2.75562L1273.43 0.900146L1283.1 0.899902V22.4999H1303.58V0.899902H1315.1V53.2556L1312.93 56.0999H1303.58V32.8999H1283.1V56.0999H1271.58Z" fill="black"/>
<path d="M1298.88 2.65576H1302.88V6.65576H1298.88V2.65576Z" fill="black"/>
<path d="M1478 51.5C1480.21 51.5 1482 49.7091 1482 47.5L1482 9.5C1482 7.29086 1480.21 5.5 1478 5.5V5.5L1478 51.5V51.5Z" fill="#E23D3B" fill-opacity="0.8"/>
</svg>
