<svg width="410" height="28" viewBox="0 0 410 28" fill="none" xmlns="http://www.w3.org/2000/svg">
<g clip-path="url(#clip0_136_10055)">
<mask id="mask0_136_10055" style="mask-type:luminance" maskUnits="userSpaceOnUse" x="0" y="0" width="410" height="87">
<path d="M410 0H0V87H410V0Z" fill="white"/>
</mask>
<g mask="url(#mask0_136_10055)">
<path d="M45.1481 -42.3215L39.7792 -45.0001L-51.9998 92.3713L-46.6309 95.05L45.1481 -42.3215Z" fill="#E23D3B"/>
<path d="M81.8868 -42.3215L76.5179 -45.0001L-15.261 92.3713L-9.89215 95.05L81.8868 -42.3215Z" fill="#E23D3B"/>
<path d="M118.626 -42.3215L113.257 -45.0001L21.4777 92.3713L26.8466 95.05L118.626 -42.3215Z" fill="#E23D3B"/>
<path d="M155.365 -42.3215L149.996 -45.0001L58.217 92.3713L63.5859 95.05L155.365 -42.3215Z" fill="#E23D3B"/>
<path d="M192.103 -42.3215L186.734 -45.0001L94.9553 92.3713L100.324 95.05L192.103 -42.3215Z" fill="#E23D3B"/>
<path d="M228.843 -42.3215L223.474 -45.0001L131.695 92.3713L137.064 95.05L228.843 -42.3215Z" fill="#E23D3B"/>
<path d="M265.581 -42.3215L260.212 -45.0001L168.433 92.3713L173.802 95.05L265.581 -42.3215Z" fill="#E23D3B"/>
<path d="M302.319 -42.3215L296.951 -45.0001L205.172 92.3713L210.54 95.05L302.319 -42.3215Z" fill="#E23D3B"/>
<path d="M339.059 -42.3215L333.69 -45.0001L241.911 92.3713L247.28 95.05L339.059 -42.3215Z" fill="#E23D3B"/>
<path d="M375.797 -42.3215L370.429 -45.0001L278.65 92.3713L284.018 95.05L375.797 -42.3215Z" fill="#E23D3B"/>
<path d="M412.537 -42.3215L407.168 -45.0001L315.389 92.3713L320.758 95.05L412.537 -42.3215Z" fill="#E23D3B"/>
<path d="M449.275 -42.3215L443.907 -45.0001L352.128 92.3713L357.496 95.05L449.275 -42.3215Z" fill="#E23D3B"/>
</g>
</g>
<defs>
<clipPath id="clip0_136_10055">
<rect width="410" height="28" fill="white"/>
</clipPath>
</defs>
</svg>
